<?xml version="1.0" encoding="utf-8"?>
<!-- Generator: Adobe Illustrator 25.2.1, SVG Export Plug-In . SVG Version: 6.00 Build 0)  -->
<svg version="1.1" id="Laurier_Computing_Society_1_"
	 xmlns="http://www.w3.org/2000/svg" xmlns:xlink="http://www.w3.org/1999/xlink" x="0px" y="0px" viewBox="0 0 880 880"
	 style="enable-background:new 0 0 880 880;" xml:space="preserve">
<style type="text/css">
	.st0{fill:url(#SVGID_1_);}
</style>
<g id="LCS">
	<g>
		<linearGradient id="SVGID_1_" gradientUnits="userSpaceOnUse" x1="440.0602" y1="716.6717" x2="440.0602" y2="159.7445">
			<stop  offset="0" style="stop-color:#89F7FE"/>
			<stop  offset="1" style="stop-color:#6CB3FF"/>
		</linearGradient>
		<path class="st0" d="M614.52,599.8c-11.88-10.94-27.16-18.87-45.87-23.76l-52.32-15.12c-4.27-1.32-8.24-2.71-11.9-4.17
			c3.77-3.78,7.19-7.9,10.23-12.38c8.96-13.18,13.44-28.7,13.44-46.55h-18.64c0,21.16-6.8,38.27-20.39,51.32
			c-3.27-2.05-6.09-4.21-8.47-6.47c-7.5-7.13-11.24-16.74-11.24-28.84c0-15.26,5.93-27.87,17.81-37.81
			c11.87-9.94,28.87-14.91,50.99-14.91c19.44,0,34.88,3.64,46.31,10.91c11.43,7.27,18.33,17.97,20.71,32.08h16.48
			c-2.38-16.71-10.73-30.49-25.05-41.37c-14.33-10.87-33.81-16.31-58.45-16.31c-28.2,0-49.69,6.19-64.46,18.58
			c-14.77,12.39-22.15,28.23-22.15,47.53c0,17.57,5.93,31.11,17.81,40.61c2.3,1.84,4.83,3.64,7.58,5.41
			c-13.79,8.61-30.62,12.93-50.48,12.93c-21.67,0-39.34-5.65-52.99-16.96c-13.65-11.3-23.7-26.32-30.12-45.04
			c-6.43-18.72-9.64-39.39-9.64-62c0-9.07,0.56-17.62,1.67-25.68h59.61v-13.83H337.9c2.15-9.1,5.11-17.47,8.9-25.08
			c8.74-17.57,20.16-30.89,34.24-39.97c14.09-9.07,29.22-13.61,45.4-13.61c18.64,0,35.47,5.48,50.5,16.42
			c15.03,10.95,25.86,26,32.51,45.15l17.77-4.75c-8.24-20.88-20.77-37.88-37.6-50.98c-16.83-13.1-37.89-19.66-63.18-19.66
			c-20.23,0-38.69,5.08-55.37,15.23c-16.69,10.15-29.98,25.03-39.88,44.61c-4.94,9.77-8.64,20.65-11.12,32.65h-55.81V159.74h-16.48
			v262.05h70.04c-0.99,8.12-1.48,16.68-1.48,25.68c0,25.78,4.33,49.11,13,69.99c8.67,20.88,21.2,37.48,37.6,49.8
			c16.4,12.31,36.23,18.47,59.49,18.47c19.21,0,36.48-3.6,51.8-10.8c5-2.35,9.65-5.02,13.97-8.01c8.87,4.2,19.21,8.18,31.01,11.92
			l41.86,11.45c15.59,4.47,27.72,11.2,36.4,20.2c8.68,9,13.03,20.34,13.03,34.02c0,9.51-3.01,18.62-9.02,27.33
			c-6.01,8.72-14.77,15.84-26.27,21.39c-11.5,5.55-25.49,8.32-41.97,8.32c-13.8,0-26.65-2.27-38.52-6.8
			c-11.88-4.54-21.45-11.52-28.72-20.96c-7.27-9.43-10.91-21.42-10.91-35.97h-15.59c-0.15,16.42,4.04,30.5,12.58,42.23
			c8.53,11.74,19.96,20.78,34.29,27.11c14.32,6.34,30.09,9.51,47.31,9.51c20.78,0,38.18-3.53,52.21-10.59
			c14.03-7.05,24.6-16.09,31.73-27.11c7.12-11.02,10.69-22.5,10.69-34.46C632.33,625.65,626.39,610.75,614.52,599.8z"/>
	</g>
</g>
</svg>
