<svg width="1752" height="405" viewBox="0 0 1752 405" fill="none" xmlns="http://www.w3.org/2000/svg">
<path d="M405.13 50.1908C190.536 -52.6301 105.046 50.1911 0.42334 32.2207V356.101C100.514 398.759 283.555 279.56 419.525 356.101C566.798 439.006 567.906 347.258 918.663 311.463C1010.6 284.963 1105.78 435.885 1302.7 398.047C1527.08 354.931 1577.27 320.524 1734.43 338.059L1752 40.8898C1700.18 50.7791 1713.17 64.8849 1563.4 64.8849C1461.48 54.4254 1350.77 -7.10027 1124.27 50.1908C1030.39 73.9376 908.965 50.8248 863.56 50.1908C539.115 1.26934 520.863 105.644 405.13 50.1908Z" fill="url(#paint0_linear_1285_40)" fill-opacity="0.5"/>
<path d="M276.681 21.1669C174.328 21.1668 43.8904 59.9916 7.43758e-05 69.5978L0 371.577C100.091 414.235 136.516 271.29 276.681 339.879C371.91 386.479 735.296 365.086 807.812 339.879C899.752 313.379 939.238 420.417 1193.59 383.041C1428.69 348.494 1320.19 392.598 1741.24 368.173V46.5749C1551.72 -16.5865 1566.41 139.107 1428.81 46.5749C1151.51 -82.7428 1201.72 101.734 1013.77 69.3286C918.338 52.8733 905.639 4.58604 781.619 30.0101C577.872 94.8945 379.033 21.167 276.681 21.1669Z" fill="url(#paint1_linear_1285_40)" fill-opacity="0.5"/>
<path d="M473.727 29.0694C335.361 -21.3331 185.084 158.344 0 33.0667V348.494C100.091 391.153 157.068 249.997 364.905 323.033C433.133 347.009 589.575 348.24 662.092 323.033C754.032 296.533 895.027 301.143 1157.16 365.803C1307.2 402.811 1443.32 277.908 1741.24 348.494V33.0665C1701.3 20.7048 1549.49 131.899 1400.33 60.7393C1260.4 6.71145 1062.87 89.6286 942.055 97.382C752.551 109.544 652.468 94.1799 473.727 29.0694Z" fill="url(#paint2_linear_1285_40)"/>
<defs>
<linearGradient id="paint0_linear_1285_40" x1="116.288" y1="212.976" x2="1857.53" y2="212.976" gradientUnits="userSpaceOnUse">
<stop stop-color="#6CB3FF"/>
<stop offset="1" stop-color="#89F7FE"/>
</linearGradient>
<linearGradient id="paint1_linear_1285_40" x1="0.000246283" y1="226.015" x2="1741.24" y2="226.014" gradientUnits="userSpaceOnUse">
<stop stop-color="#6CB3FF"/>
<stop offset="1" stop-color="#89F7FE"/>
</linearGradient>
<linearGradient id="paint2_linear_1285_40" x1="0" y1="196.36" x2="1741.24" y2="196.36" gradientUnits="userSpaceOnUse">
<stop stop-color="#6CB3FF"/>
<stop offset="1" stop-color="#89F7FE"/>
</linearGradient>
</defs>
</svg>
