<svg width="1742" height="404" viewBox="0 0 1742 404" fill="none" xmlns="http://www.w3.org/2000/svg">
<path d="M404.921 50.3514C190.213 -52.3731 104.678 50.3517 0 32.3981V355.974C100.144 398.593 283.282 279.505 419.324 355.974C566.675 438.801 567.784 347.14 918.727 311.378C1010.72 284.903 1105.94 435.684 1302.96 397.881C1527.46 354.806 1577.68 320.431 1734.93 337.95L1741 40.6697C1689.15 50.5497 1713.66 65.0316 1563.81 65.0316C1461.83 54.582 1351.06 -6.88595 1124.44 50.3514C1030.51 74.0759 909.023 50.9847 863.595 50.3514C538.978 1.47581 520.716 105.752 404.921 50.3514Z" fill="url(#paint0_linear_1285_40)" fill-opacity="0.5"/>
<path d="M276.681 21.1669C174.328 21.1668 43.8904 59.9916 7.43758e-05 69.5978L0 371.577C100.091 414.235 136.516 271.29 276.681 339.879C371.91 386.479 735.296 365.086 807.812 339.879C899.752 313.379 939.238 420.417 1193.59 383.041C1428.69 348.494 1320.19 392.598 1741.24 368.173V46.5749C1551.72 -16.5865 1566.41 139.107 1428.81 46.5749C1151.51 -82.7428 1201.72 101.734 1013.77 69.3286C918.338 52.8733 905.639 4.58604 781.619 30.0101C577.872 94.8945 379.033 21.167 276.681 21.1669Z" fill="url(#paint1_linear_1285_40)" fill-opacity="0.5"/>
<path d="M473.727 29.0694C335.361 -21.3331 185.084 158.344 0 33.0667V348.494C100.091 391.153 157.068 249.997 364.905 323.033C433.133 347.009 589.575 348.24 662.092 323.033C754.032 296.533 895.027 301.143 1157.16 365.803C1307.2 402.811 1443.32 277.908 1741.24 348.494V33.0665C1701.3 20.7048 1549.49 131.899 1400.33 60.7393C1260.4 6.71145 1062.87 89.6286 942.055 97.382C752.551 109.544 652.468 94.1799 473.727 29.0694Z" fill="url(#paint2_linear_1285_40)"/>
<defs>
<linearGradient id="paint0_linear_1285_40" x1="115.926" y1="212.984" x2="1858.09" y2="212.984" gradientUnits="userSpaceOnUse">
<stop stop-color="#6CB3FF"/>
<stop offset="1" stop-color="#89F7FE"/>
</linearGradient>
<linearGradient id="paint1_linear_1285_40" x1="0.000246283" y1="226.015" x2="1741.24" y2="226.014" gradientUnits="userSpaceOnUse">
<stop stop-color="#6CB3FF"/>
<stop offset="1" stop-color="#89F7FE"/>
</linearGradient>
<linearGradient id="paint2_linear_1285_40" x1="0" y1="196.36" x2="1741.24" y2="196.36" gradientUnits="userSpaceOnUse">
<stop stop-color="#6CB3FF"/>
<stop offset="1" stop-color="#89F7FE"/>
</linearGradient>
</defs>
</svg>
