<svg width="643" height="603" viewBox="0 0 643 603" fill="none" xmlns="http://www.w3.org/2000/svg">
<path d="M606.051 139.373L573.66 163.402L573.66 116.319L606.051 95.8864L606.051 139.373Z" fill="#4F85C0"/>
<path d="M288.862 545.019L223.282 583.183L223.282 536.101L288.862 500.809L288.862 545.019Z" fill="#3C6694"/>
<path d="M288.689 544.96L321.08 564.614L321.08 517.531L288.689 497.098L288.689 544.96Z" fill="#467AB1"/>
<path d="M157.039 219.068L384.63 343.95L384.63 305.779L157.039 175.582L157.039 219.068Z" fill="#609AD9"/>
<path d="M384.424 305.84L157.069 176.149L419.069 27.4902L481.252 63.1619L515.371 43.203L606.307 95.898L574.246 116.508L642.044 155.4L384.424 305.84Z" fill="#63A3E8"/>
<path d="M30.3125 281.93L255.713 404.377V559.34L223.64 541.876V583.339L50.8842 481.75V443.715L30.3125 432.17L30.3125 281.93Z" fill="#5F97D5"/>
<path d="M162.371 208.559L29.8723 281.694L255.419 408.67L383.598 334.57L162.371 208.559Z" fill="#5086C1"/>
<path d="M610.84 356.066V398.922L321.164 564.735V518.322L255.713 558.838L255.713 407.79L383.347 334.551V305.904L641.991 155.287V340.344L610.84 356.066Z" fill="#558CC8"/>
<path d="M48.2822 324.54V138.866L208.641 232.586V417.538L48.2822 324.54Z" fill="#65A4E7"/>
<path d="M368.999 324.54V138.866L208.64 232.586V417.538L368.999 324.54Z" fill="#5A91CE"/>
<path d="M208.2 46.4899L368.999 139.327L208.63 232.8L48.0946 138.977L208.2 46.4899Z" fill="#7DBCFF"/>
<path d="M51.5745 223.123V196.157L74.8634 209.768V236.629L51.5745 223.123Z" fill="#3C4855"/>
<path d="M87.2699 228.541L87.2699 202.774L74.8628 209.768V236.629L87.2699 228.541Z" fill="#2C3844"/>
<path d="M63.8883 189.394L87.2527 202.795L74.8388 209.828L51.5642 196.167L63.8883 189.394Z" fill="#495562"/>
<path d="M160.496 286.715V259.75L183.785 273.361V300.221L160.496 286.715Z" fill="#3C4855"/>
<path d="M196.191 292.132L196.191 266.366L183.784 273.36V300.221L196.191 292.132Z" fill="#2C3844"/>
<path d="M172.81 252.986L196.174 266.388L183.76 273.42L160.486 259.759L172.81 252.986Z" fill="#495562"/>
<path d="M0.956299 315.704V273.896L128.292 347.336V389.79L0.956299 315.704Z" fill="#4475AB"/>
<path d="M64.6075 236.629L1.32397 274.221L128.537 347.056L192.374 310.214L64.6075 236.629Z" fill="#5189C6"/>
<path d="M128.507 389.43V347.311L192.271 310.636V352.265L128.507 389.43Z" fill="#3D6999"/>
<path d="M392.123 468.088L415.06 481.501L415.06 429.999L392.123 416.698L392.123 468.088Z" fill="#5D94D0"/>
<path d="M437.04 468.48L459.977 481.893L459.977 430.391L437.04 417.09L437.04 468.48Z" fill="#5D94D0"/>
<path d="M566.162 263.157L588.685 277.454L392.139 390.955L369.151 377.742L566.162 263.157Z" fill="#70B0F4"/>
<path d="M476.693 271.598L499.789 284.332L415.077 331.56L392.213 318.655L476.693 271.598Z" fill="#70B0F4"/>
<path d="M369.199 429.095L392.136 442.508L392.136 391.006L369.199 377.704L369.199 429.095Z" fill="#5D94D0"/>
<path d="M392.172 364.467L415.109 377.88L415.109 331.557L392.172 318.58L392.172 364.467Z" fill="#5D94D0"/>
<path d="M392.142 443.091V390.946L415.039 377.695V331.455L499.893 284.056V328.586L589.077 277.454L589.077 335.622L554.999 355.794V402.603L506.234 429.711V455.839L459.86 481.777V455.839L415.039 481.777V429.711L392.142 443.091Z" fill="#679FDC"/>
</svg>
