<svg width="1831" height="1135" viewBox="0 0 1831 1135" fill="none" xmlns="http://www.w3.org/2000/svg">
<g filter="url(#filter0_d)">
<g clip-path="url(#clip0)">
<line x1="980.3" y1="1028.07" x2="1277.41" y2="778.768" stroke="#4CC082" stroke-width="20" stroke-linecap="round"/>
<line x1="88.4779" y1="886.514" x2="376.689" y2="648.522" stroke="#6F8EFF" stroke-width="22" stroke-linecap="round"/>
<line x1="587.739" y1="890.059" x2="1122.86" y2="436.261" stroke="#6F8EFF" stroke-width="30" stroke-linecap="round"/>
<line x1="483.171" y1="400.251" x2="639.793" y2="268.829" stroke="#6F8EFF" stroke-width="19" stroke-linecap="round"/>
<line x1="561.256" y1="1024.45" x2="650.717" y2="945.744" stroke="#F4DC5A" stroke-width="50" stroke-linecap="round"/>
<line x1="700.684" y1="92.2404" x2="757.882" y2="44.2449" stroke="#8D55E9" stroke-width="32" stroke-linecap="round"/>
<line x1="375.713" y1="734.328" x2="792.545" y2="382.288" stroke="#EC6C5A" stroke-width="12" stroke-linecap="round"/>
<line x1="666.798" y1="1049.18" x2="914.552" y2="844.202" stroke="#8D55E9" stroke-width="12" stroke-linecap="round"/>
<line x1="109.731" y1="452.696" x2="463.241" y2="160.269" stroke="#E350F0" stroke-width="26" stroke-linecap="round"/>
<line x1="1333.41" y1="330.632" x2="1433.02" y2="247.049" stroke="#EC6C5A" stroke-width="26" stroke-linecap="round"/>
<line x1="330.756" y1="994.43" x2="1004.69" y2="434.311" stroke="#4CC082" stroke-width="26" stroke-linecap="round"/>
<line x1="1174.71" y1="1003.14" x2="1514.75" y2="717.813" stroke="#FF5761" stroke-width="2" stroke-linecap="round"/>
<line x1="249.062" y1="428.901" x2="592.242" y2="140.938" stroke="#4CC082" stroke-linecap="round"/>
<line x1="623.129" y1="437.457" x2="916.918" y2="190.939" stroke="#4CC082" stroke-linecap="round"/>
<line x1="344.062" y1="606.287" x2="587.595" y2="401.938" stroke="white" stroke-linecap="round"/>
<line x1="1570.42" y1="292.295" x2="1693.55" y2="191.647" stroke="#F4DC5A" stroke-width="5" stroke-linecap="round"/>
<line x1="970.198" y1="883.654" x2="1429.36" y2="480.802" stroke="#E350F0" stroke-width="26" stroke-linecap="round"/>
<line x1="1311.55" y1="695.336" x2="1646.73" y2="414.08" stroke="#EC6C5A" stroke-width="6" stroke-linecap="round"/>
<line x1="1563.14" y1="953.198" x2="1646.97" y2="882.857" stroke="#F4DC5A" stroke-width="51" stroke-linecap="round"/>
<line x1="1596.46" y1="658.273" x2="1662.79" y2="602.611" stroke="#EC6C5A" stroke-width="55" stroke-linecap="round"/>
<line x1="882.224" y1="138.564" x2="1010.6" y2="30.8424" stroke="#F4DC5A" stroke-width="35" stroke-linecap="round"/>
<line x1="1024.94" y1="242.073" x2="1121.63" y2="160.939" stroke="#6E8EFF" stroke-width="32" stroke-linecap="round"/>
<line x1="1541.36" y1="196.97" x2="1700.18" y2="63.7062" stroke="#6E8EFF" stroke-width="21" stroke-linecap="round"/>
<line x1="653.191" y1="220.745" x2="1006.98" y2="-76.1229" stroke="#F4DC5A" stroke-width="2" stroke-linecap="round"/>
<line x1="1436.9" y1="668.247" x2="1803.99" y2="360.222" stroke="#8D55E9" stroke-width="2" stroke-linecap="round"/>
<line x1="463.247" y1="792.738" x2="857.699" y2="461.753" stroke="white" stroke-width="4" stroke-linecap="round"/>
<line x1="1546.37" y1="390.403" x2="1776.11" y2="197.63" stroke="#4CC082" stroke-width="6" stroke-linecap="round"/>
<line x1="842.112" y1="786.996" x2="1280.17" y2="413.394" stroke="white" stroke-width="2" stroke-linecap="round"/>
<line x1="1225.82" y1="530.483" x2="1583.1" y2="230.688" stroke="white" stroke-width="5" stroke-linecap="round"/>
<line x1="1302.11" y1="263.452" x2="1576.38" y2="33.306" stroke="white" stroke-linecap="round"/>
<line x1="1084.95" y1="340.857" x2="1450.29" y2="44.2951" stroke="#F4DC5A" stroke-width="13" stroke-linecap="round"/>
<path d="M1451.35 857.335L1705 644.5" stroke="#FF5761" stroke-width="8" stroke-linecap="round"/>
<line x1="828.56" y1="315.342" x2="1082.21" y2="102.507" stroke="#FF5761" stroke-width="8" stroke-linecap="round"/>
<line x1="1364.49" y1="1007.24" x2="1571.54" y2="833.507" stroke="#4CC082" stroke-width="8" stroke-linecap="round"/>
<line x1="346.479" y1="109.395" x2="439.285" y2="31.521" stroke="#F4DC5A" stroke-width="24" stroke-linecap="round"/>
<line x1="380.643" y1="801.766" x2="74.6431" y2="1058.77" stroke="#E350F0" stroke-width="2"/>
<line x1="154.095" y1="705.257" x2="283.224" y2="596.905" stroke="#4CC082" stroke-width="34" stroke-linecap="round"/>
<line x1="100.493" y1="628.243" x2="307.544" y2="454.507" stroke="#4CC082" stroke-width="8" stroke-linecap="round"/>
</g>
</g>
<defs>
<filter id="filter0_d" x="0" y="0" width="1831" height="1159" filterUnits="userSpaceOnUse" color-interpolation-filters="sRGB">
<feFlood flood-opacity="0" result="BackgroundImageFix"/>
<feColorMatrix in="SourceAlpha" type="matrix" values="0 0 0 0 0 0 0 0 0 0 0 0 0 0 0 0 0 0 127 0" result="hardAlpha"/>
<feOffset dx="-50" dy="50"/>
<feGaussianBlur stdDeviation="12.5"/>
<feColorMatrix type="matrix" values="0 0 0 0 0 0 0 0 0 0 0 0 0 0 0 0 0 0 0.15 0"/>
<feBlend mode="normal" in2="BackgroundImageFix" result="effect1_dropShadow"/>
<feBlend mode="normal" in="SourceGraphic" in2="effect1_dropShadow" result="shape"/>
</filter>
<clipPath id="clip0">
<rect x="75" width="1756" height="1084" rx="20" fill="white"/>
</clipPath>
</defs>
</svg>
