<svg width="2000" height="1000" viewBox="0 20 ${width} ${height}" fill="none" xmlns="http://www.w3.org/2000/svg">
    <rect width="2000" height="1000" fill="#C7DEF4" />
    <g id="Footer" clip-path="url(#clip0)">

        <g filter="url(#filter0_d)">
            <path d="M254.686 166.686L281.455 173.859L261.859 193.455L254.686 166.686Z" fill="#ED33B9" />
            <path d="M1533.3 85.5824L1545.15 65L1552.87 69.4447L1541.02 90.0272L1533.3 85.5824ZM1538.87 126.477L1550.72 105.894L1528.85 93.3009L1533.3 85.5824L1562.88 102.621L1558.44 110.339L1546.59 130.922L1538.87 126.478Z" fill="#ED33B9" />
        </g>
        <g filter="url(#filter1_d)">
            <path d="M687.851 204.534L689.463 224.387L671.464 215.857L687.851 204.534Z" fill="#FFF129" />
        </g>
        <g filter="url(#filter2_d)">
            <path d="M1380.24 60.595L1380.55 80.5112L1363.14 70.8204L1380.24 60.595Z" fill="#51E5FF" />
        </g>
        <g filter="url(#filter3_d)">
            <path d="M1055.54 122.55L1027.35 165.696L1004.08 119.71L1055.54 122.55Z" fill="#23CE6B" />
        </g>
        <g filter="url(#filter4_d)">
            <path d="M938.709 278.486L963.31 291.7L939.566 306.398L938.709 278.486Z" fill="#ED33B9" />
        </g>
        <g filter="url(#filter5_d)">
            <path d="M1122.9 382.041L1079.48 394.323L1090.56 350.58L1122.9 382.041Z" fill="#FFF129" />
        </g>
        <g filter="url(#filter6_d)">
            <path d="M391.205 77.6298L398.042 112.09L364.78 100.782L391.205 77.6298Z" fill="#FFF129" />
        </g>
        <g filter="url(#filter7_d)">
            <path d="M560.633 48.1043L529.958 49.4304L544.147 22.2021L560.633 48.1043Z" fill="#23CE6B" />
        </g>
        <g filter="url(#filter8_d)">
            <path d="M92.2687 134.307L88.1694 155.983L71.447 141.595L92.2687 134.307Z" fill="#23CE6B" />
        </g>
        <g filter="url(#filter9_d)">
            <path d="M801.249 353.777L835.522 358.487L814.306 385.813L801.249 353.777Z" fill="#51E5FF" />

        </g>
        <g filter="url(#filter10_d)">
            <circle cx="380.657" cy="282.657" r="10.6574" fill="#FFF129" />
        </g>
        <g filter="url(#filter11_d)">
            <circle cx="1390" cy="344" r="10" fill="#23CE6B" />
        </g>
        <g filter="url(#filter12_d)">
            <circle cx="173.5" cy="289.5" r="6.5" fill="#51E5FF" />
        </g>
        <g filter="url(#filter13_d)">
            <circle cx="1216" cy="76" r="12" fill="#ED33B9" />
        </g>
        <g filter="url(#filter14_d)">
            <circle cx="798" cy="123" r="9" fill="#51E5FF" />
        </g>
        <g filter="url(#filter15_d)">
            <path fill-rule="evenodd" clip-rule="evenodd" d="M545.093 248.795L561.887 232L568.185 238.298L551.391 255.093L545.093 248.795ZM539.844 289.732L556.639 272.937L538.795 255.093L545.093 248.795L569.235 272.937L562.937 279.235L546.142 296.03L539.844 289.732Z" fill="white" />
        </g>
        <g filter="url(#filter16_d)">
            <path fill-rule="evenodd" clip-rule="evenodd" d="M1302.13 234.382L1295.98 257.324L1287.38 255.019L1293.52 232.077L1302.13 234.382ZM1286.2 196.305L1280.06 219.247L1304.43 225.779L1302.13 234.382L1269.15 225.545L1271.45 216.942L1277.6 194L1286.2 196.305Z" fill="white" />
        </g>
        <g filter="url(#filter17_d)">
            <path fill-rule="evenodd" clip-rule="evenodd" d="M200.895 89.8357L180.076 78.4048L184.362 70.5974L205.182 82.0283L200.895 89.8357ZM241.668 83.4323L220.848 72.0014L208.703 94.1223L200.895 89.8357L217.327 59.9074L225.135 64.1941L245.954 75.625L241.668 83.4323Z" fill="white" />
        </g>
        <g filter="url(#filter18_d)">
            <path fill-rule="evenodd" clip-rule="evenodd" d="M928.838 86.2516L905.827 80.3679L908.033 71.7388L931.044 77.6225L928.838 86.2516ZM966.73 69.8926L943.719 64.0089L937.467 88.458L928.838 86.2516L937.296 53.1733L945.925 55.3798L968.936 61.2635L966.73 69.8926Z" fill="white" />
        </g>
        <g filter="url(#filter19_d)">
            <path d="M1444.21 222.219L1473.69 213.626L1466.39 243.45L1444.21 222.219Z" fill="#FFF129" />
        </g>
        <g filter="url(#filter20_d)">
            <path d="M1490.28 374.056L1473.11 338.035L1512.89 341.178L1490.28 374.056Z" fill="#51E5FF" />
        </g>
        <g filter="url(#filter21_d)">
            <circle cx="1609.5" cy="175.5" r="8.5" transform="rotate(180 1609.5 175.5)" fill="#51E5FF" />
        </g>
        <g filter="url(#filter22_d)">
            <path fill-rule="evenodd" clip-rule="evenodd" d="M1533.3 85.5824L1545.15 65L1552.87 69.4447L1541.02 90.0272L1533.3 85.5824ZM1538.87 126.477L1550.72 105.894L1528.85 93.3009L1533.3 85.5824L1562.88 102.621L1558.44 110.339L1546.59 130.922L1538.87 126.477Z" fill="white" />
        </g>
        <!-- <path d="M859 170C859 160.611 851.389 153 842 153C832.611 153 825 160.611 825 170C825 178.485 831.217 185.518 839.344 186.793V174.914H835.027V170H839.344V166.255C839.344 161.994 841.882 159.641 845.765 159.641C847.624 159.641 849.57 159.973 849.57 159.973V164.156H847.427C845.315 164.156 844.656 165.467 844.656 166.812V170H849.371L848.617 174.914H844.656V186.793C852.783 185.518 859 178.485 859 170Z" fill="#2C3844" />
        <path d="M792.696 183C805.523 183 812.541 172.611 812.541 163.605C812.541 163.313 812.534 163.014 812.521 162.722C813.886 161.757 815.064 160.562 816 159.193C814.729 159.746 813.379 160.107 811.996 160.264C813.452 159.411 814.542 158.072 815.064 156.494C813.694 157.287 812.197 157.846 810.636 158.148C809.584 157.055 808.193 156.332 806.678 156.09C805.163 155.847 803.609 156.099 802.255 156.807C800.902 157.515 799.824 158.638 799.19 160.004C798.555 161.37 798.399 162.903 798.744 164.364C795.972 164.228 793.26 163.524 790.783 162.298C788.307 161.072 786.122 159.351 784.37 157.246C783.48 158.747 783.207 160.523 783.608 162.212C784.009 163.902 785.053 165.379 786.528 166.344C785.421 166.309 784.337 166.018 783.368 165.493V165.578C783.367 167.153 783.924 168.679 784.944 169.898C785.965 171.116 787.385 171.952 788.965 172.263C787.939 172.537 786.862 172.577 785.818 172.38C786.263 173.734 787.131 174.918 788.298 175.768C789.466 176.617 790.876 177.089 792.331 177.117C789.86 179.014 786.808 180.043 783.667 180.038C783.11 180.037 782.553 180.004 782 179.938C785.192 181.939 788.904 183.002 792.696 183Z" fill="#2C3844" />
        <path d="M751 156.061C755.542 156.061 756.08 156.081 757.866 156.161C759.527 156.234 760.423 156.513 761.021 156.745C761.811 157.051 762.382 157.423 762.973 158.014C763.571 158.611 763.936 159.176 764.241 159.966C764.474 160.564 764.753 161.467 764.826 163.12C764.905 164.913 764.925 165.451 764.925 169.987C764.925 174.529 764.905 175.067 764.826 176.853C764.753 178.513 764.474 179.41 764.241 180.007C763.936 180.798 763.564 181.369 762.973 181.96C762.375 182.557 761.811 182.923 761.021 183.228C760.423 183.461 759.52 183.739 757.866 183.812C756.073 183.892 755.536 183.912 751 183.912C746.458 183.912 745.92 183.892 744.134 183.812C742.473 183.739 741.577 183.461 740.979 183.228C740.189 182.923 739.618 182.551 739.027 181.96C738.429 181.362 738.064 180.798 737.759 180.007C737.526 179.41 737.247 178.507 737.174 176.853C737.095 175.06 737.075 174.522 737.075 169.987C737.075 165.445 737.095 164.907 737.174 163.12C737.247 161.46 737.526 160.564 737.759 159.966C738.064 159.176 738.436 158.605 739.027 158.014C739.625 157.416 740.189 157.051 740.979 156.745C741.577 156.513 742.48 156.234 744.134 156.161C745.92 156.081 746.458 156.061 751 156.061ZM751 153C746.385 153 745.807 153.02 743.994 153.1C742.188 153.179 740.946 153.471 739.87 153.89C738.748 154.328 737.798 154.906 736.855 155.855C735.906 156.798 735.328 157.748 734.89 158.864C734.471 159.946 734.179 161.181 734.1 162.987C734.02 164.807 734 165.385 734 170C734 174.615 734.02 175.193 734.1 177.006C734.179 178.812 734.471 180.054 734.89 181.13C735.328 182.252 735.906 183.202 736.855 184.145C737.798 185.087 738.748 185.672 739.864 186.104C740.946 186.522 742.181 186.814 743.988 186.894C745.8 186.973 746.378 186.993 750.993 186.993C755.609 186.993 756.186 186.973 757.999 186.894C759.805 186.814 761.047 186.522 762.123 186.104C763.239 185.672 764.188 185.087 765.131 184.145C766.074 183.202 766.659 182.252 767.09 181.136C767.509 180.054 767.801 178.819 767.88 177.013C767.96 175.2 767.98 174.622 767.98 170.007C767.98 165.391 767.96 164.814 767.88 163.001C767.801 161.195 767.509 159.953 767.09 158.877C766.672 157.748 766.094 156.798 765.145 155.855C764.202 154.913 763.252 154.328 762.136 153.896C761.054 153.478 759.819 153.186 758.013 153.106C756.193 153.02 755.615 153 751 153Z" fill="#2C3844" />
        <path d="M751 161.268C746.179 161.268 742.268 165.179 742.268 170C742.268 174.821 746.179 178.732 751 178.732C755.821 178.732 759.732 174.821 759.732 170C759.732 165.179 755.821 161.268 751 161.268ZM751 175.664C747.872 175.664 745.336 173.128 745.336 170C745.336 166.872 747.872 164.336 751 164.336C754.128 164.336 756.664 166.872 756.664 170C756.664 173.128 754.128 175.664 751 175.664Z" fill="#2C3844" />
        <path d="M762.116 160.922C762.116 162.051 761.2 162.961 760.078 162.961C758.949 162.961 758.039 162.044 758.039 160.922C758.039 159.793 758.955 158.884 760.078 158.884C761.2 158.884 762.116 159.8 762.116 160.922Z" fill="#2C3844" />
        <path d="M904.483 153H875.51C874.122 153 873 154.096 873 155.45V184.543C873 185.898 874.122 187 875.51 187H904.483C905.871 187 907 185.898 907 184.55V155.45C907 154.096 905.871 153 904.483 153ZM883.087 181.973H878.04V165.743H883.087V181.973ZM880.564 163.532C878.943 163.532 877.635 162.224 877.635 160.61C877.635 158.996 878.943 157.688 880.564 157.688C882.177 157.688 883.486 158.996 883.486 160.61C883.486 162.217 882.177 163.532 880.564 163.532ZM901.973 181.973H896.933V174.084C896.933 172.205 896.9 169.781 894.31 169.781C891.687 169.781 891.288 171.833 891.288 173.951V181.973H886.255V165.743H891.089V167.961H891.155C891.826 166.686 893.473 165.338 895.923 165.338C901.03 165.338 901.973 168.698 901.973 173.068V181.973Z" fill="#2C3844" />
        <path d="M954.661 163.2C954.661 163.2 954.329 160.856 953.307 159.827C952.012 158.472 950.564 158.465 949.9 158.386C945.145 158.04 938.007 158.04 938.007 158.04H937.993C937.993 158.04 930.855 158.04 926.1 158.386C925.436 158.465 923.988 158.472 922.693 159.827C921.671 160.856 921.345 163.2 921.345 163.2C921.345 163.2 921 165.956 921 168.705V171.282C921 174.031 921.339 176.787 921.339 176.787C921.339 176.787 921.671 179.131 922.687 180.16C923.982 181.515 925.682 181.468 926.439 181.615C929.161 181.873 938 181.953 938 181.953C938 181.953 945.145 181.94 949.9 181.601C950.564 181.522 952.012 181.515 953.307 180.16C954.329 179.131 954.661 176.787 954.661 176.787C954.661 176.787 955 174.038 955 171.282V168.705C955 165.956 954.661 163.2 954.661 163.2ZM934.487 174.409V164.854L943.671 169.648L934.487 174.409Z" fill="#2C3844" />
        <path d="M700.008 167.263C699.039 167.263 698.274 168.113 698.274 169.15C698.274 170.187 699.056 171.037 700.008 171.037C700.977 171.037 701.742 170.187 701.742 169.15C701.759 168.113 700.977 167.263 700.008 167.263ZM706.213 167.263C705.244 167.263 704.479 168.113 704.479 169.15C704.479 170.187 705.261 171.037 706.213 171.037C707.182 171.037 707.947 170.187 707.947 169.15C707.947 168.113 707.182 167.263 706.213 167.263Z" fill="#2C3844" />
        <path d="M714.475 153H691.695C689.774 153 688.21 154.564 688.21 156.502V179.486C688.21 181.424 689.774 182.988 691.695 182.988H710.973L710.072 179.843L712.248 181.866L714.305 183.77L717.96 187V156.502C717.96 154.564 716.396 153 714.475 153ZM707.913 175.202C707.913 175.202 707.301 174.471 706.791 173.825C709.018 173.196 709.868 171.802 709.868 171.802C709.171 172.261 708.508 172.584 707.913 172.805C707.063 173.162 706.247 173.4 705.448 173.536C703.816 173.842 702.32 173.757 701.045 173.519C700.076 173.332 699.243 173.06 698.546 172.788C698.155 172.635 697.73 172.448 697.305 172.21C697.254 172.176 697.203 172.159 697.152 172.125C697.118 172.108 697.101 172.091 697.084 172.074C696.778 171.904 696.608 171.785 696.608 171.785C696.608 171.785 697.424 173.145 699.583 173.791C699.073 174.437 698.444 175.202 698.444 175.202C694.687 175.083 693.259 172.618 693.259 172.618C693.259 167.144 695.707 162.707 695.707 162.707C698.155 160.871 700.484 160.922 700.484 160.922L700.654 161.126C697.594 162.01 696.183 163.353 696.183 163.353C696.183 163.353 696.557 163.149 697.186 162.86C699.005 162.061 700.45 161.84 701.045 161.789C701.147 161.772 701.232 161.755 701.334 161.755C702.371 161.619 703.544 161.585 704.768 161.721C706.383 161.908 708.117 162.384 709.885 163.353C709.885 163.353 708.542 162.078 705.652 161.194L705.89 160.922C705.89 160.922 708.219 160.871 710.667 162.707C710.667 162.707 713.115 167.144 713.115 172.618C713.115 172.618 711.67 175.083 707.913 175.202Z" fill="#2C3844" />
        <path d="M988.186 153H982.456V176.159C982.456 178.919 980.252 181.186 977.51 181.186C974.767 181.186 972.563 178.919 972.563 176.159C972.563 173.449 974.718 171.232 977.363 171.133V165.319C971.535 165.417 966.833 170.197 966.833 176.159C966.833 182.171 971.633 187 977.559 187C983.485 187 988.284 182.122 988.284 176.159V164.284C990.439 165.861 993.084 166.797 995.875 166.846V161.032C991.565 160.884 988.186 157.336 988.186 153Z" fill="#2C3844" /> -->
    </g>
    <defs>
        <filter id="filter0_d" x="239.803" y="157.756" width="41.6522" height="35.6988" filterUnits="userSpaceOnUse" color-interpolation-filters="sRGB">
            <feFlood flood-opacity="0" result="BackgroundImageFix" />
            <feColorMatrix in="SourceAlpha" type="matrix" values="0 0 0 0 0 0 0 0 0 0 0 0 0 0 0 0 0 0 127 0" result="hardAlpha" />
            <feOffset dx="-13.3953" dy="-7.44186" />
            <feGaussianBlur stdDeviation="0.744186" />
            <feColorMatrix type="matrix" values="0 0 0 0 0 0 0 0 0 0 0 0 0 0 0 0 0 0 0.25 0" />
            <feBlend mode="normal" in2="BackgroundImageFix" result="effect1_dropShadow" />
            <feBlend mode="normal" in="SourceGraphic" in2="effect1_dropShadow" result="shape" />
        </filter>
        <filter id="filter1_d" x="660.766" y="198.115" width="28.6972" height="26.2718" filterUnits="userSpaceOnUse" color-interpolation-filters="sRGB">
            <feFlood flood-opacity="0" result="BackgroundImageFix" />
            <feColorMatrix in="SourceAlpha" type="matrix" values="0 0 0 0 0 0 0 0 0 0 0 0 0 0 0 0 0 0 127 0" result="hardAlpha" />
            <feOffset dx="-9.62791" dy="-5.34884" />
            <feGaussianBlur stdDeviation="0.534884" />
            <feColorMatrix type="matrix" values="0 0 0 0 0 0 0 0 0 0 0 0 0 0 0 0 0 0 0.25 0" />
            <feBlend mode="normal" in2="BackgroundImageFix" result="effect1_dropShadow" />
            <feBlend mode="normal" in="SourceGraphic" in2="effect1_dropShadow" result="shape" />
        </filter>
        <filter id="filter2_d" x="1352.45" y="54.1764" width="28.0999" height="26.3348" filterUnits="userSpaceOnUse" color-interpolation-filters="sRGB">
            <feFlood flood-opacity="0" result="BackgroundImageFix" />
            <feColorMatrix in="SourceAlpha" type="matrix" values="0 0 0 0 0 0 0 0 0 0 0 0 0 0 0 0 0 0 127 0" result="hardAlpha" />
            <feOffset dx="-9.62791" dy="-5.34884" />
            <feGaussianBlur stdDeviation="0.534884" />
            <feColorMatrix type="matrix" values="0 0 0 0 0 0 0 0 0 0 0 0 0 0 0 0 0 0 0.25 0" />
            <feBlend mode="normal" in2="BackgroundImageFix" result="effect1_dropShadow" />
            <feBlend mode="normal" in="SourceGraphic" in2="effect1_dropShadow" result="shape" />
        </filter>
        <filter id="filter3_d" x="976.395" y="103.102" width="79.1404" height="62.5939" filterUnits="userSpaceOnUse" color-interpolation-filters="sRGB">
            <feFlood flood-opacity="0" result="BackgroundImageFix" />
            <feColorMatrix in="SourceAlpha" type="matrix" values="0 0 0 0 0 0 0 0 0 0 0 0 0 0 0 0 0 0 127 0" result="hardAlpha" />
            <feOffset dx="-24.9119" dy="-13.84" />
            <feGaussianBlur stdDeviation="1.384" />
            <feColorMatrix type="matrix" values="0 0 0 0 0 0 0 0 0 0 0 0 0 0 0 0 0 0 0.25 0" />
            <feBlend mode="normal" in2="BackgroundImageFix" result="effect1_dropShadow" />
            <feBlend mode="normal" in="SourceGraphic" in2="effect1_dropShadow" result="shape" />
        </filter>
        <filter id="filter4_d" x="923.711" y="269.487" width="39.599" height="36.911" filterUnits="userSpaceOnUse" color-interpolation-filters="sRGB">
            <feFlood flood-opacity="0" result="BackgroundImageFix" />
            <feColorMatrix in="SourceAlpha" type="matrix" values="0 0 0 0 0 0 0 0 0 0 0 0 0 0 0 0 0 0 127 0" result="hardAlpha" />
            <feOffset dx="-13.4981" dy="-7.49895" />
            <feGaussianBlur stdDeviation="0.749895" />
            <feColorMatrix type="matrix" values="0 0 0 0 0 0 0 0 0 0 0 0 0 0 0 0 0 0 0.25 0" />
            <feBlend mode="normal" in2="BackgroundImageFix" result="effect1_dropShadow" />
            <feBlend mode="normal" in="SourceGraphic" in2="effect1_dropShadow" result="shape" />
        </filter>
        <filter id="filter5_d" x="1055.25" y="336.04" width="67.6533" height="58.2835" filterUnits="userSpaceOnUse" color-interpolation-filters="sRGB">
            <feFlood flood-opacity="0" result="BackgroundImageFix" />
            <feColorMatrix in="SourceAlpha" type="matrix" values="0 0 0 0 0 0 0 0 0 0 0 0 0 0 0 0 0 0 127 0" result="hardAlpha" />
            <feOffset dx="-21.8107" dy="-12.1171" />
            <feGaussianBlur stdDeviation="1.21171" />
            <feColorMatrix type="matrix" values="0 0 0 0 0 0 0 0 0 0 0 0 0 0 0 0 0 0 0.25 0" />
            <feBlend mode="normal" in2="BackgroundImageFix" result="effect1_dropShadow" />
            <feBlend mode="normal" in="SourceGraphic" in2="effect1_dropShadow" result="shape" />
        </filter>
        <filter id="filter6_d" x="345.912" y="66.3087" width="52.1309" height="45.7814" filterUnits="userSpaceOnUse" color-interpolation-filters="sRGB">
            <feFlood flood-opacity="0" result="BackgroundImageFix" />
            <feColorMatrix in="SourceAlpha" type="matrix" values="0 0 0 0 0 0 0 0 0 0 0 0 0 0 0 0 0 0 127 0" result="hardAlpha" />
            <feOffset dx="-16.9816" dy="-9.43422" />
            <feGaussianBlur stdDeviation="0.943422" />
            <feColorMatrix type="matrix" values="0 0 0 0 0 0 0 0 0 0 0 0 0 0 0 0 0 0 0.25 0" />
            <feBlend mode="normal" in2="BackgroundImageFix" result="effect1_dropShadow" />
            <feBlend mode="normal" in="SourceGraphic" in2="effect1_dropShadow" result="shape" />
        </filter>
        <filter id="filter7_d" x="513.468" y="12.3082" width="47.1649" height="37.1223" filterUnits="userSpaceOnUse" color-interpolation-filters="sRGB">
            <feFlood flood-opacity="0" result="BackgroundImageFix" />
            <feColorMatrix in="SourceAlpha" type="matrix" values="0 0 0 0 0 0 0 0 0 0 0 0 0 0 0 0 0 0 127 0" result="hardAlpha" />
            <feOffset dx="-14.841" dy="-8.24499" />
            <feGaussianBlur stdDeviation="0.824498" />
            <feColorMatrix type="matrix" values="0 0 0 0 0 0 0 0 0 0 0 0 0 0 0 0 0 0 0.25 0" />
            <feBlend mode="normal" in2="BackgroundImageFix" result="effect1_dropShadow" />
            <feBlend mode="normal" in="SourceGraphic" in2="effect1_dropShadow" result="shape" />
        </filter>
        <filter id="filter8_d" x="59.5991" y="127.198" width="32.6697" height="28.7849" filterUnits="userSpaceOnUse" color-interpolation-filters="sRGB">
            <feFlood flood-opacity="0" result="BackgroundImageFix" />
            <feColorMatrix in="SourceAlpha" type="matrix" values="0 0 0 0 0 0 0 0 0 0 0 0 0 0 0 0 0 0 127 0" result="hardAlpha" />
            <feOffset dx="-10.6632" dy="-5.92398" />
            <feGaussianBlur stdDeviation="0.592398" />
            <feColorMatrix type="matrix" values="0 0 0 0 0 0 0 0 0 0 0 0 0 0 0 0 0 0 0.25 0" />
            <feBlend mode="normal" in2="BackgroundImageFix" result="effect1_dropShadow" />
            <feBlend mode="normal" in="SourceGraphic" in2="effect1_dropShadow" result="shape" />
        </filter>
        <filter id="filter9_d" x="772.061" y="328.966" width="63.4606" height="56.8474" filterUnits="userSpaceOnUse" color-interpolation-filters="sRGB">
            <feFlood flood-opacity="0" result="BackgroundImageFix" />
            <feColorMatrix in="SourceAlpha" type="matrix" values="0 0 0 0 0 0 0 0 0 0 0 0 0 0 0 0 0 0 127 0" result="hardAlpha" />
            <feOffset dx="-16.722" dy="-9.28999" />
            <feGaussianBlur stdDeviation="0.928999" />
            <feColorMatrix type="matrix" values="0 0 0 0 0 0 0 0 0 0 0 0 0 0 0 0 0 0 0.25 0" />
            <feBlend mode="normal" in2="BackgroundImageFix" result="effect1_dropShadow" />
            <feBlend mode="normal" in="SourceGraphic" in2="effect1_dropShadow" result="shape" />
        </filter>
        <filter id="filter10_d" x="349.205" y="259.523" width="42.1096" height="33.7917" filterUnits="userSpaceOnUse" color-interpolation-filters="sRGB">
            <feFlood flood-opacity="0" result="BackgroundImageFix" />
            <feColorMatrix in="SourceAlpha" type="matrix" values="0 0 0 0 0 0 0 0 0 0 0 0 0 0 0 0 0 0 127 0" result="hardAlpha" />
            <feOffset dx="-18.7154" dy="-10.3974" />
            <feGaussianBlur stdDeviation="1.03974" />
            <feColorMatrix type="matrix" values="0 0 0 0 0 0 0 0 0 0 0 0 0 0 0 0 0 0 0.25 0" />
            <feBlend mode="normal" in2="BackgroundImageFix" result="effect1_dropShadow" />
            <feBlend mode="normal" in="SourceGraphic" in2="effect1_dropShadow" result="shape" />
        </filter>
        <filter id="filter11_d" x="1360.49" y="322.293" width="39.5122" height="31.7073" filterUnits="userSpaceOnUse" color-interpolation-filters="sRGB">
            <feFlood flood-opacity="0" result="BackgroundImageFix" />
            <feColorMatrix in="SourceAlpha" type="matrix" values="0 0 0 0 0 0 0 0 0 0 0 0 0 0 0 0 0 0 127 0" result="hardAlpha" />
            <feOffset dx="-17.561" dy="-9.7561" />
            <feGaussianBlur stdDeviation="0.97561" />
            <feColorMatrix type="matrix" values="0 0 0 0 0 0 0 0 0 0 0 0 0 0 0 0 0 0 0.25 0" />
            <feBlend mode="normal" in2="BackgroundImageFix" result="effect1_dropShadow" />
            <feBlend mode="normal" in="SourceGraphic" in2="effect1_dropShadow" result="shape" />
        </filter>
        <filter id="filter12_d" x="154.317" y="275.39" width="25.6829" height="20.6098" filterUnits="userSpaceOnUse" color-interpolation-filters="sRGB">
            <feFlood flood-opacity="0" result="BackgroundImageFix" />
            <feColorMatrix in="SourceAlpha" type="matrix" values="0 0 0 0 0 0 0 0 0 0 0 0 0 0 0 0 0 0 127 0" result="hardAlpha" />
            <feOffset dx="-11.4146" dy="-6.34146" />
            <feGaussianBlur stdDeviation="0.634146" />
            <feColorMatrix type="matrix" values="0 0 0 0 0 0 0 0 0 0 0 0 0 0 0 0 0 0 0.25 0" />
            <feBlend mode="normal" in2="BackgroundImageFix" result="effect1_dropShadow" />
            <feBlend mode="normal" in="SourceGraphic" in2="effect1_dropShadow" result="shape" />
        </filter>
        <filter id="filter13_d" x="1180.59" y="49.9512" width="47.4146" height="38.0488" filterUnits="userSpaceOnUse" color-interpolation-filters="sRGB">
            <feFlood flood-opacity="0" result="BackgroundImageFix" />
            <feColorMatrix in="SourceAlpha" type="matrix" values="0 0 0 0 0 0 0 0 0 0 0 0 0 0 0 0 0 0 127 0" result="hardAlpha" />
            <feOffset dx="-21.0732" dy="-11.7073" />
            <feGaussianBlur stdDeviation="1.17073" />
            <feColorMatrix type="matrix" values="0 0 0 0 0 0 0 0 0 0 0 0 0 0 0 0 0 0 0.25 0" />
            <feBlend mode="normal" in2="BackgroundImageFix" result="effect1_dropShadow" />
            <feBlend mode="normal" in="SourceGraphic" in2="effect1_dropShadow" result="shape" />
        </filter>
        <filter id="filter14_d" x="771.439" y="103.463" width="35.561" height="28.5366" filterUnits="userSpaceOnUse" color-interpolation-filters="sRGB">
            <feFlood flood-opacity="0" result="BackgroundImageFix" />
            <feColorMatrix in="SourceAlpha" type="matrix" values="0 0 0 0 0 0 0 0 0 0 0 0 0 0 0 0 0 0 127 0" result="hardAlpha" />
            <feOffset dx="-15.8049" dy="-8.78049" />
            <feGaussianBlur stdDeviation="0.878049" />
            <feColorMatrix type="matrix" values="0 0 0 0 0 0 0 0 0 0 0 0 0 0 0 0 0 0 0.25 0" />
            <feBlend mode="normal" in2="BackgroundImageFix" result="effect1_dropShadow" />
            <feBlend mode="normal" in="SourceGraphic" in2="effect1_dropShadow" result="shape" />
        </filter>
        <filter id="filter15_d" x="509.106" y="214.187" width="60.1295" height="81.8433" filterUnits="userSpaceOnUse" color-interpolation-filters="sRGB">
            <feFlood flood-opacity="0" result="BackgroundImageFix" />
            <feColorMatrix in="SourceAlpha" type="matrix" values="0 0 0 0 0 0 0 0 0 0 0 0 0 0 0 0 0 0 127 0" result="hardAlpha" />
            <feOffset dx="-26.7202" dy="-14.8446" />
            <feGaussianBlur stdDeviation="1.48446" />
            <feColorMatrix type="matrix" values="0 0 0 0 0 0 0 0 0 0 0 0 0 0 0 0 0 0 0.25 0" />
            <feBlend mode="normal" in2="BackgroundImageFix" result="effect1_dropShadow" />
            <feBlend mode="normal" in="SourceGraphic" in2="effect1_dropShadow" result="shape" />
        </filter>
        <filter id="filter16_d" x="1239.46" y="176.187" width="64.9735" height="81.1374" filterUnits="userSpaceOnUse" color-interpolation-filters="sRGB">
            <feFlood flood-opacity="0" result="BackgroundImageFix" />
            <feColorMatrix in="SourceAlpha" type="matrix" values="0 0 0 0 0 0 0 0 0 0 0 0 0 0 0 0 0 0 127 0" result="hardAlpha" />
            <feOffset dx="-26.7202" dy="-14.8446" />
            <feGaussianBlur stdDeviation="1.48446" />
            <feColorMatrix type="matrix" values="0 0 0 0 0 0 0 0 0 0 0 0 0 0 0 0 0 0 0.25 0" />
            <feBlend mode="normal" in2="BackgroundImageFix" result="effect1_dropShadow" />
            <feBlend mode="normal" in="SourceGraphic" in2="effect1_dropShadow" result="shape" />
        </filter>
        <filter id="filter17_d" x="150.386" y="30.6631" width="95.5678" height="74.8902" filterUnits="userSpaceOnUse" color-interpolation-filters="sRGB">
            <feFlood flood-opacity="0" result="BackgroundImageFix" />
            <feColorMatrix in="SourceAlpha" type="matrix" values="0 0 0 0 0 0 0 0 0 0 0 0 0 0 0 0 0 0 127 0" result="hardAlpha" />
            <feOffset dx="-26.7202" dy="-14.8446" />
            <feGaussianBlur stdDeviation="1.48446" />
            <feColorMatrix type="matrix" values="0 0 0 0 0 0 0 0 0 0 0 0 0 0 0 0 0 0 0.25 0" />
            <feBlend mode="normal" in2="BackgroundImageFix" result="effect1_dropShadow" />
            <feBlend mode="normal" in="SourceGraphic" in2="effect1_dropShadow" result="shape" />
        </filter>
        <filter id="filter18_d" x="876.138" y="35.3599" width="92.7981" height="53.0982" filterUnits="userSpaceOnUse" color-interpolation-filters="sRGB">
            <feFlood flood-opacity="0" result="BackgroundImageFix" />
            <feColorMatrix in="SourceAlpha" type="matrix" values="0 0 0 0 0 0 0 0 0 0 0 0 0 0 0 0 0 0 127 0" result="hardAlpha" />
            <feOffset dx="-26.7202" dy="-14.8446" />
            <feGaussianBlur stdDeviation="1.48446" />
            <feColorMatrix type="matrix" values="0 0 0 0 0 0 0 0 0 0 0 0 0 0 0 0 0 0 0.25 0" />
            <feBlend mode="normal" in2="BackgroundImageFix" result="effect1_dropShadow" />
            <feBlend mode="normal" in="SourceGraphic" in2="effect1_dropShadow" result="shape" />
        </filter>
        <filter id="filter19_d" x="1427.72" y="203.732" width="45.9667" height="39.7179" filterUnits="userSpaceOnUse" color-interpolation-filters="sRGB">
            <feFlood flood-opacity="0" result="BackgroundImageFix" />
            <feColorMatrix in="SourceAlpha" type="matrix" values="0 0 0 0 0 0 0 0 0 0 0 0 0 0 0 0 0 0 127 0" result="hardAlpha" />
            <feOffset dx="-14.841" dy="-8.24499" />
            <feGaussianBlur stdDeviation="0.824498" />
            <feColorMatrix type="matrix" values="0 0 0 0 0 0 0 0 0 0 0 0 0 0 0 0 0 0 0.25 0" />
            <feBlend mode="normal" in2="BackgroundImageFix" result="effect1_dropShadow" />
            <feBlend mode="normal" in="SourceGraphic" in2="effect1_dropShadow" result="shape" />
        </filter>
        <filter id="filter20_d" x="1451.68" y="325.177" width="61.2104" height="48.8797" filterUnits="userSpaceOnUse" color-interpolation-filters="sRGB">
            <feFlood flood-opacity="0" result="BackgroundImageFix" />
            <feColorMatrix in="SourceAlpha" type="matrix" values="0 0 0 0 0 0 0 0 0 0 0 0 0 0 0 0 0 0 127 0" result="hardAlpha" />
            <feOffset dx="-19.2878" dy="-10.7155" />
            <feGaussianBlur stdDeviation="1.07155" />
            <feColorMatrix type="matrix" values="0 0 0 0 0 0 0 0 0 0 0 0 0 0 0 0 0 0 0.25 0" />
            <feBlend mode="normal" in2="BackgroundImageFix" result="effect1_dropShadow" />
            <feBlend mode="normal" in="SourceGraphic" in2="effect1_dropShadow" result="shape" />
        </filter>
        <filter id="filter21_d" x="1584.41" y="157.049" width="33.5854" height="26.9512" filterUnits="userSpaceOnUse" color-interpolation-filters="sRGB">
            <feFlood flood-opacity="0" result="BackgroundImageFix" />
            <feColorMatrix in="SourceAlpha" type="matrix" values="0 0 0 0 0 0 0 0 0 0 0 0 0 0 0 0 0 0 127 0" result="hardAlpha" />
            <feOffset dx="-14.9268" dy="-8.29268" />
            <feGaussianBlur stdDeviation="0.829268" />
            <feColorMatrix type="matrix" values="0 0 0 0 0 0 0 0 0 0 0 0 0 0 0 0 0 0 0.25 0" />
            <feBlend mode="normal" in2="BackgroundImageFix" result="effect1_dropShadow" />
            <feBlend mode="normal" in="SourceGraphic" in2="effect1_dropShadow" result="shape" />
        </filter>
        <filter id="filter22_d" x="1499.16" y="47.1865" width="63.7212" height="83.7351" filterUnits="userSpaceOnUse" color-interpolation-filters="sRGB">
            <feFlood flood-opacity="0" result="BackgroundImageFix" />
            <feColorMatrix in="SourceAlpha" type="matrix" values="0 0 0 0 0 0 0 0 0 0 0 0 0 0 0 0 0 0 127 0" result="hardAlpha" />
            <feOffset dx="-26.7202" dy="-14.8446" />
            <feGaussianBlur stdDeviation="1.48446" />
            <feColorMatrix type="matrix" values="0 0 0 0 0 0 0 0 0 0 0 0 0 0 0 0 0 0 0.25 0" />
            <feBlend mode="normal" in2="BackgroundImageFix" result="effect1_dropShadow" />
            <feBlend mode="normal" in="SourceGraphic" in2="effect1_dropShadow" result="shape" />
        </filter>
        <!-- <clipPath id="clip0">
            <rect width="1680" height="340" fill="white" />
        </clipPath> -->
    </defs>
</svg>