<svg width="643" height="658" viewBox="0 0 643 658" fill="none" xmlns="http://www.w3.org/2000/svg">
<path d="M606.051 194.495L573.661 218.524L573.661 171.441L606.051 151.009L606.051 194.495Z" fill="#4F85C0"/>
<path d="M288.862 600.142L223.283 638.306L223.283 591.223L288.862 555.932L288.862 600.142Z" fill="#3C6694"/>
<path d="M288.689 600.082L321.08 619.736L321.08 572.653L288.689 552.22L288.689 600.082Z" fill="#467AB1"/>
<path d="M157.039 274.19L384.631 399.072L384.631 360.901L157.039 230.704L157.039 274.19Z" fill="#609AD9"/>
<path d="M384.424 360.962L157.07 231.271L419.069 82.6125L481.253 118.284L515.372 98.3253L606.307 151.02L574.247 171.631L642.044 210.523L384.424 360.962Z" fill="#63A3E8"/>
<path d="M30.3128 337.052L255.714 459.499V614.462L223.64 596.998V638.461L50.8844 536.872V498.837L30.3127 487.292L30.3128 337.052Z" fill="#5F97D5"/>
<path d="M162.371 263.682L29.8726 336.817L255.42 463.793L383.598 389.693L162.371 263.682Z" fill="#5086C1"/>
<path d="M610.84 411.188V454.044L321.164 619.857V573.444L255.713 613.96L255.713 462.912L383.347 389.673V361.026L641.991 210.409V395.467L610.84 411.188Z" fill="#558CC8"/>
<path d="M48.2825 379.663V193.988L208.641 287.708V472.66L48.2825 379.663Z" fill="#65A4E7"/>
<path d="M368.999 379.663V193.988L208.641 287.708V472.66L368.999 379.663Z" fill="#5A91CE"/>
<path d="M208.2 101.613L368.999 194.45L208.63 287.923L48.0949 194.099L208.2 101.613Z" fill="#7DBCFF"/>
<path d="M51.5747 278.246V251.28L74.8637 264.891V291.752L51.5747 278.246Z" fill="#3C4855"/>
<path d="M87.2701 283.663L87.2702 257.897L74.8631 264.891V291.752L87.2701 283.663Z" fill="#2C3844"/>
<path d="M63.8886 244.517L87.2529 257.918L74.8391 264.951L51.5644 251.29L63.8886 244.517Z" fill="#495562"/>
<path d="M160.496 341.838V314.872L183.785 328.483V355.344L160.496 341.838Z" fill="#3C4855"/>
<path d="M196.192 347.255L196.192 321.489L183.784 328.483V355.344L196.192 347.255Z" fill="#2C3844"/>
<path d="M172.81 308.109L196.175 321.51L183.761 328.542L160.486 314.882L172.81 308.109Z" fill="#495562"/>
<path d="M0.956543 370.827V329.018L128.292 402.458V444.913L0.956543 370.827Z" fill="#4475AB"/>
<path d="M64.6077 291.752L1.32422 329.343L128.538 402.178L192.375 365.337L64.6077 291.752Z" fill="#5189C6"/>
<path d="M128.507 444.553V402.433L192.272 365.759V407.388L128.507 444.553Z" fill="#3D6999"/>
<path d="M392.123 523.211L415.06 536.624L415.06 485.122L392.123 471.82L392.123 523.211Z" fill="#5D94D0"/>
<path d="M437.04 523.602L459.977 537.015L459.977 485.513L437.04 472.212L437.04 523.602Z" fill="#5D94D0"/>
<path d="M566.162 318.28L588.685 332.577L392.139 446.077L369.152 432.864L566.162 318.28Z" fill="#70B0F4"/>
<path d="M476.693 326.72L499.79 339.455L415.077 386.682L392.213 373.777L476.693 326.72Z" fill="#70B0F4"/>
<path d="M369.199 484.217L392.136 497.63L392.136 446.128L369.199 432.826L369.199 484.217Z" fill="#5D94D0"/>
<path d="M392.173 419.59L415.11 433.003L415.11 386.68L392.173 373.703L392.173 419.59Z" fill="#5D94D0"/>
<path d="M392.142 498.213V446.069L415.039 432.817V386.578L499.894 339.178V383.708L589.077 332.577L589.077 390.744L554.999 410.917V457.725L506.235 484.833V510.961L459.86 536.899V510.961L415.039 536.899V484.833L392.142 498.213Z" fill="#679FDC"/>
<path d="M273.252 65.8907L434.978 158.587L207.805 289.771L47.2699 195.948L273.252 65.8907Z" fill="#8C8C8C"/>
<path d="M47.5928 215.86L47.5928 195.836L207.816 289.638V311.186L47.5928 215.86Z" fill="#7A7C7B"/>
<path d="M207.799 289.721V311.187L435.168 178.673V158.134L207.799 289.721Z" fill="#666967"/>
<path d="M75.5922 139.9L61.978 131.804L94.4968 112.719L107.101 120.819L75.5922 139.9Z" fill="#E0E5F0"/>
<path d="M207.799 284.82L61.7505 199.884V131.725L75.6382 139.895V124.274L195.046 192.588V205.302L207.799 212.43V284.82Z" fill="#D6DAE4"/>
<path d="M303.232 105.639L380.098 154.582L343.622 174.301L334.753 154.582L303.232 105.639Z" fill="#D7DCE8"/>
<path d="M207.494 284.82L353.543 199.884L379.941 184.953V154.296L343.827 173.482V134.017L207.494 212.377V284.82Z" fill="#C3C6CE"/>
<path d="M75.8484 124.416L213.344 45.1083L331.441 114.859L194.967 192.88L75.8484 124.416Z" fill="#E7EBF5"/>
<path d="M94.8032 167.026V204.967L160.132 242.656V204.967L94.8032 167.026Z" fill="#5189C6"/>
<path d="M195.027 192.853V205.329L331.658 127.21V114.715L195.027 192.853Z" fill="#C3C6CE"/>
<path d="M207.583 212.363L195.027 205.383L331.734 127.21L343.742 134.34L207.583 212.363Z" fill="#E2E6F0"/>
<path d="M204.659 99.6843L188.505 109.011L204.713 118.255L220.805 108.964L204.659 99.6843Z" fill="#3C4855"/>
<path d="M220.25 119.194L204.814 128.106L204.713 118.255L220.805 108.964L220.25 119.194Z" fill="#2C3844"/>
<path d="M188.712 118.727L204.822 128.088L204.741 118.219L188.507 109.001L188.712 118.727Z" fill="#495562"/>
<path d="M153.686 243.947L147.97 247.29L147.97 234.456L153.686 231.141L153.686 243.947Z" fill="#416D9E"/>
<path d="M142.492 244.045L136.777 247.387L136.777 234.553L142.492 231.239L142.492 244.045Z" fill="#416D9E"/>
<path d="M110.316 192.88L104.704 196.443L153.681 224.726L159.41 221.434L110.316 192.88Z" fill="#70B0F4"/>
<path d="M132.611 194.984L126.856 198.157L147.966 209.925L153.663 206.71L132.611 194.984Z" fill="#70B0F4"/>
<path d="M159.398 234.231L153.682 237.573L153.682 224.739L159.398 221.425L159.398 234.231Z" fill="#416D9E"/>
<path d="M153.673 218.126L147.957 221.468L147.957 209.925L153.673 206.691L153.673 218.126Z" fill="#416D9E"/>
<path d="M153.681 237.718V224.724L147.975 221.422V209.9L126.83 198.088V209.185L104.606 196.443L104.606 210.938L113.098 215.965V227.629L125.25 234.384V240.895L136.806 247.359V240.895L147.975 247.359V234.384L153.681 237.718Z" fill="#5C99DB"/>
</svg>
