<svg width="175" height="235" viewBox="0 0 175 235" fill="none" xmlns="http://www.w3.org/2000/svg">
<path d="M174.129 183.433L86.7639 234.239L0.560547 16.3534L28.5423 0.537598L86.7639 33.7913V67.1568L116.137 51.2292L174.129 84.0774V183.433Z" fill="#9B3B52"/>
<path d="M0.228271 117.616V17.0269L57.9331 50.7668V84.1915L86.9432 100.904V67.1638L144.963 100.904L144.767 200.454L115.953 184.465V217.075L86.9432 201.178V234.287L57.9331 217.575V184.465L29.2384 167.438V134.644L0.228271 117.616Z" fill="#C75973"/>
<path d="M28.6809 0.321289L0.219727 17.094L57.9165 50.719L86.8547 33.7636L28.6809 0.321289Z" fill="#E3758F"/>
<path d="M116.03 50.4341L87.012 67.0406L145.191 101.117L174.129 84.1614L116.03 50.4341Z" fill="#E3758F"/>
</svg>
