<svg width="254" height="555" viewBox="0 0 254 555" fill="none" xmlns="http://www.w3.org/2000/svg">
<path fill-rule="evenodd" clip-rule="evenodd" d="M58.2444 516.953L35.668 426.026H220.216L203.746 517.172H203.653C202.591 522.831 199.517 528.459 194.27 533.705C174.084 553.89 129.375 560.806 94.4115 549.152C73.3211 542.123 60.5937 529.942 58.2444 516.953Z" fill="url(#paint0_linear_826_382)"/>
<path fill-rule="evenodd" clip-rule="evenodd" d="M81.6511 467.432C126.041 482.228 182.803 473.447 208.431 447.821C216.837 439.416 220.849 430.243 220.881 421.188L221.537 402.576L215.195 402.588C207.979 391.205 194.065 381.165 174.461 374.631C130.07 359.835 73.3091 368.616 47.6805 394.242C44.8703 397.052 42.5512 399.948 40.7076 402.896L31.7505 402.912L35.2443 422.318L35.2598 422.318C36.0404 440.361 52.594 457.747 81.6511 467.432Z" fill="#999FAA"/>
<path d="M80.0219 448.175C124.554 463.017 181.727 454.268 207.63 428.368C233.532 402.468 218.071 369.509 173.538 354.666C129.006 339.823 71.8331 348.572 45.9305 374.473C20.0279 400.373 35.4897 433.332 80.0219 448.175Z" fill="#BDC2CF" stroke="#DDE1EC"/>
<path fill-rule="evenodd" clip-rule="evenodd" d="M48.8818 372.292C48.0269 373.055 47.2008 373.835 46.4047 374.631C42.5465 378.489 39.6138 382.509 37.5669 386.605L48.8818 372.292ZM47.7876 429.567C55.5968 436.886 66.5761 443.222 80.3753 447.821C124.765 462.617 181.527 453.836 207.155 428.21C223.283 412.084 223.239 393.13 209.929 377.606L47.7876 429.567Z" fill="#BDC2CF"/>
<ellipse cx="66.6054" cy="51.5905" rx="66.6054" ry="51.5905" transform="matrix(0.948692 0.316203 -0.707138 0.707076 100.073 343.881)" fill="url(#paint1_radial_826_382)"/>
<path d="M234.452 176.726C225.576 256.556 206.152 309.667 185.065 343.763C163.988 377.841 141.419 392.698 126.147 396.685C129.112 347.47 137.084 313.693 145.828 291.467C150.332 280.017 155.021 271.682 159.297 265.891C163.617 260.04 167.364 256.987 169.895 255.787L169.973 255.751L170.048 255.71C189.228 245.437 205.416 226.321 217.803 206.98C224.407 196.67 230.002 186.182 234.452 176.726Z" fill="url(#paint2_linear_826_382)" stroke="url(#paint3_linear_826_382)" stroke-width="7"/>
<path d="M146.233 387.546C140.47 393.419 133.886 396.72 126.243 397.16C123.984 352.861 123.288 281.75 128.361 208.228C133.174 138.467 143.162 66.8661 161.771 13.943C171.192 80.8288 179.9 174.101 177.564 252.166C176.315 293.933 171.91 331.047 162.92 357.394C158.425 370.569 152.873 380.778 146.233 387.546Z" fill="url(#paint4_linear_826_382)" stroke="url(#paint5_linear_826_382)" stroke-width="7"/>
<path d="M123.52 380.65C109.635 261.476 101.838 205.124 99.6011 191.516L99.6009 191.514C90.5232 136.422 92.1358 88.6324 95.6199 59.115C96.8882 63.7669 98.4674 68.2212 100.191 72.3664C104.769 83.3731 110.468 92.4425 114.455 97.5833C138.595 138.234 144.663 196.238 142.11 253.031C139.968 300.671 131.785 347.009 123.52 380.65Z" fill="url(#paint6_linear_826_382)" stroke="url(#paint7_linear_826_382)" stroke-width="7"/>
<path d="M65.3689 267.996L65.5951 268.173L65.847 268.31C89.9939 281.466 134.39 324.86 122.355 394.433C89.3404 370.261 33.5178 308.682 32.3972 225.626C39.1112 239.033 50.1881 256.155 65.3689 267.996Z" fill="url(#paint8_linear_826_382)" stroke="url(#paint9_linear_826_382)" stroke-width="7"/>
<path d="M122.24 259.544C137.505 308.927 142.372 358.483 122.861 393.433C99.8931 346.473 61.0703 239.423 65.1227 136.231C84.273 167.077 107.775 212.746 122.24 259.544Z" fill="url(#paint10_linear_826_382)" stroke="url(#paint11_linear_826_382)" stroke-width="7"/>
<defs>
<linearGradient id="paint0_linear_826_382" x1="35.668" y1="554.813" x2="220.216" y2="554.813" gradientUnits="userSpaceOnUse">
<stop stop-color="#D4D9E5"/>
<stop offset="0.520833" stop-color="#DDE4F4"/>
<stop offset="1" stop-color="#D4D9E6"/>
</linearGradient>
<radialGradient id="paint1_radial_826_382" cx="0" cy="0" r="1" gradientUnits="userSpaceOnUse" gradientTransform="translate(66.6054 51.5905) rotate(106.279) scale(49.4374 79.1884)">
<stop stop-color="#6D6262"/>
<stop offset="0.844837" stop-color="#514A4A"/>
</radialGradient>
<linearGradient id="paint2_linear_826_382" x1="181.276" y1="153.796" x2="181.276" y2="401.013" gradientUnits="userSpaceOnUse">
<stop stop-color="#47543E"/>
<stop offset="1" stop-color="#697554"/>
</linearGradient>
<linearGradient id="paint3_linear_826_382" x1="265.549" y1="254.534" x2="181.276" y2="401.013" gradientUnits="userSpaceOnUse">
<stop offset="0.229672" stop-color="#536046"/>
<stop offset="1" stop-color="#4E583C"/>
</linearGradient>
<linearGradient id="paint4_linear_826_382" x1="151.237" y1="0" x2="151.237" y2="400.711" gradientUnits="userSpaceOnUse">
<stop stop-color="#AEC5AA"/>
<stop offset="1" stop-color="#455243"/>
</linearGradient>
<linearGradient id="paint5_linear_826_382" x1="151.237" y1="0" x2="151.237" y2="400.711" gradientUnits="userSpaceOnUse">
<stop offset="0.046875" stop-color="#9BB098"/>
<stop offset="1" stop-color="#9BB098" stop-opacity="0"/>
</linearGradient>
<linearGradient id="paint6_linear_826_382" x1="117.753" y1="34.6445" x2="117.753" y2="401.471" gradientUnits="userSpaceOnUse">
<stop offset="0.25" stop-color="#A6B68E"/>
<stop offset="1" stop-color="#60753D"/>
</linearGradient>
<linearGradient id="paint7_linear_826_382" x1="117.753" y1="34.6445" x2="117.753" y2="401.471" gradientUnits="userSpaceOnUse">
<stop offset="0.239583" stop-color="#A6B68E"/>
<stop offset="0.84375" stop-color="#405029"/>
</linearGradient>
<linearGradient id="paint8_linear_826_382" x1="78.3851" y1="209.576" x2="78.3851" y2="400.411" gradientUnits="userSpaceOnUse">
<stop stop-color="#425240"/>
<stop offset="1" stop-color="#525A3A"/>
</linearGradient>
<linearGradient id="paint9_linear_826_382" x1="78.3851" y1="209.576" x2="136.066" y2="403.608" gradientUnits="userSpaceOnUse">
<stop offset="0.4375" stop-color="#47543E"/>
<stop offset="1" stop-opacity="0"/>
</linearGradient>
<linearGradient id="paint10_linear_826_382" x1="100.251" y1="125.163" x2="100.251" y2="400.651" gradientUnits="userSpaceOnUse">
<stop offset="0.4375" stop-color="#586D55"/>
<stop offset="1" stop-color="#707B52"/>
</linearGradient>
<linearGradient id="paint11_linear_826_382" x1="100.251" y1="125.163" x2="100.251" y2="400.651" gradientUnits="userSpaceOnUse">
<stop offset="0.541667" stop-color="#586D55"/>
<stop offset="1" stop-color="#3C5139" stop-opacity="0"/>
</linearGradient>
</defs>
</svg>
