<svg width="1728" height="404" viewBox="0 0 1728 404" fill="none" xmlns="http://www.w3.org/2000/svg">
<path d="M402.591 50.7915C189.342 -51.5632 104.388 50.7918 0.420898 32.9028V355.314C99.8846 397.779 281.778 279.12 416.896 355.314C563.247 437.843 564.347 346.511 912.907 310.879C1004.27 284.499 1098.85 434.737 1294.53 397.07C1517.51 354.15 1567.39 319.899 1723.57 337.354L1741.02 41.5326C1689.53 51.3771 1702.44 65.4189 1553.61 65.4189C1452.32 55.0068 1342.3 -6.23983 1117.22 50.7915C1023.93 74.4305 903.269 51.4225 858.149 50.7915C535.737 2.09184 517.599 105.993 402.591 50.7915Z" fill="url(#paint0_linear_571_44)" fill-opacity="0.5"/>
<path d="M274.947 21.899C173.236 21.899 43.6153 60.5477 7.39098e-05 70.1103L0 370.72C99.4637 413.185 135.661 270.888 274.947 339.166C369.58 385.555 730.688 364.259 802.75 339.166C894.114 312.786 933.352 419.338 1186.11 382.132C1419.74 347.742 1311.91 391.646 1730.33 367.332V47.1918C1541.99 -15.6832 1556.59 139.305 1419.85 47.1918C1144.29 -81.5395 1194.19 102.101 1007.42 69.8423C912.583 53.4617 899.964 5.39337 776.721 30.7021C574.251 95.2923 376.658 21.8991 274.947 21.899Z" fill="url(#paint1_linear_571_44)" fill-opacity="0.5"/>
<path d="M470.758 29.7656C333.259 -20.4084 183.924 158.454 0 33.7448V347.742C99.4637 390.207 156.084 249.691 362.618 322.396C430.419 346.264 585.881 347.489 657.943 322.396C749.307 296.016 889.418 300.605 1149.91 364.972C1299.01 401.813 1434.28 277.475 1730.33 347.742V33.7446C1690.64 21.439 1539.78 132.128 1391.55 61.2919C1252.5 7.50906 1056.21 90.0502 936.152 97.7685C747.835 109.875 648.38 94.5808 470.758 29.7656Z" fill="url(#paint2_linear_571_44)"/>
<defs>
<linearGradient id="paint0_linear_571_44" x1="115.56" y1="212.839" x2="1845.89" y2="212.839" gradientUnits="userSpaceOnUse">
<stop stop-color="#6CB3FF"/>
<stop offset="1" stop-color="#89F7FE"/>
</linearGradient>
<linearGradient id="paint1_linear_571_44" x1="0.00024474" y1="225.818" x2="1730.33" y2="225.818" gradientUnits="userSpaceOnUse">
<stop stop-color="#6CB3FF"/>
<stop offset="1" stop-color="#89F7FE"/>
</linearGradient>
<linearGradient id="paint2_linear_571_44" x1="0" y1="196.297" x2="1730.33" y2="196.297" gradientUnits="userSpaceOnUse">
<stop stop-color="#6CB3FF"/>
<stop offset="1" stop-color="#89F7FE"/>
</linearGradient>
</defs>
</svg>
